HIERARCHY
ROOT Pelvis
{
	OFFSET 0.000000 0.941512 0.000000
	CHANNELS 6 Xposition Yposition Zposition Zrotation Yrotation Xrotation 
	JOINT Pelvis_L_Hip
	{
		OFFSET 0.000000 0.000000 0.000000
		CHANNELS 3 Zrotation Yrotation Xrotation
		JOINT L_Hip
		{
			OFFSET 0.062321 -0.080322 -0.016990
			CHANNELS 3 Zrotation Yrotation Xrotation
			JOINT L_Knee
			{
				OFFSET 0.093051 -0.381305 -0.029784
				CHANNELS 3 Zrotation Yrotation Xrotation
				JOINT L_Ankle
				{
					OFFSET -0.010371 -0.431000 -0.033614
					CHANNELS 3 Zrotation Yrotation Xrotation
					End Site #name: L_Foot
					{
						OFFSET 0.069299 -0.038670 0.119418
					}
				}
			}
		}
	}
	JOINT Pelvis_R_Hip
	{
		OFFSET 0.000000 0.000000 0.000000
		CHANNELS 3 Zrotation Yrotation Xrotation
		JOINT R_Hip
		{
			OFFSET -0.055334 -0.094904 -0.002373
			CHANNELS 3 Zrotation Yrotation Xrotation
			JOINT R_Knee
			{
				OFFSET -0.064207 -0.384370 -0.019592
				CHANNELS 3 Zrotation Yrotation Xrotation
				JOINT R_Ankle
				{
					OFFSET 0.025418 -0.419734 -0.065953
					CHANNELS 3 Zrotation Yrotation Xrotation
					End Site #name: R_Foot
					{
						OFFSET -0.057233 -0.039888 0.132134
					}
				}
			}
		}
	}
	JOINT Pelvis_Spine1
	{
		OFFSET 0.000000 0.000000 0.000000
		CHANNELS 3 Zrotation Yrotation Xrotation
		JOINT Spine1
		{
			OFFSET -0.005562 0.124093 -0.043360
			CHANNELS 3 Zrotation Yrotation Xrotation
			JOINT Spine2
			{
				OFFSET 0.012244 0.139499 0.029894
				CHANNELS 3 Zrotation Yrotation Xrotation
				JOINT Spine3
				{
					OFFSET -0.002556 0.056561 0.009225
					CHANNELS 3 Zrotation Yrotation Xrotation
					JOINT Spine3_Neck
					{
						OFFSET 0.000000 0.000000 0.000000
						CHANNELS 3 Zrotation Yrotation Xrotation
						JOINT Neck
						{
							OFFSET -0.005205 0.217920 -0.024551
							CHANNELS 3 Zrotation Yrotation Xrotation
							End Site #name: Head
							{
								OFFSET 0.002365 0.091850 0.046637
							}
						}
					}
					JOINT Spine3_L_Collar
					{
						OFFSET 0.000000 0.000000 0.000000
						CHANNELS 3 Zrotation Yrotation Xrotation
						JOINT L_Collar
						{
							OFFSET 0.072225 0.116603 -0.009480
							CHANNELS 3 Zrotation Yrotation Xrotation
							JOINT L_Shoulder
							{
								OFFSET 0.115937 -0.058643 -0.021018
								CHANNELS 3 Zrotation Yrotation Xrotation
								JOINT L_Elbow
								{
									OFFSET 0.021994 -0.254722 -0.024492
									CHANNELS 3 Zrotation Yrotation Xrotation
									End Site #name: L_Wrist
									{
										OFFSET 0.048810 -0.240214 0.103329
									}
								}
							}
						}
					}
					JOINT Spine3_R_Collar
					{
						OFFSET 0.000000 0.000000 0.000000
						CHANNELS 3 Zrotation Yrotation Xrotation
						JOINT R_Collar
						{
							OFFSET -0.073372 0.120704 -0.024611
							CHANNELS 3 Zrotation Yrotation Xrotation
							JOINT R_Shoulder
							{
								OFFSET -0.108089 -0.054969 -0.020504
								CHANNELS 3 Zrotation Yrotation Xrotation
								JOINT R_Elbow
								{
									OFFSET -0.033684 -0.260739 0.009889
									CHANNELS 3 Zrotation Yrotation Xrotation
									End Site #name: R_Wrist
									{
										OFFSET -0.067980 -0.232763 0.118463
									}
								}
							}
						}
					}
				}
			}
		}
	}
}
MOTION
Frames: 10
Frame Time: 0.041667
0.000000 0.958668 0.000000 -1.626279 -1.759762 1.337834 0.000000 0.000000 0.000000 -4.723578 -1.234415 -5.623840 11.208790 -1.554645 5.449550 -7.561284 -16.833256 3.696893 0.000000 0.000000 0.000000 3.985161 0.029867 -1.233191 -7.119865 0.501661 -4.971038 4.627702 11.458020 2.442910 0.000000 0.000000 0.000000 4.256205 0.092638 -8.193175 -4.627590 4.814655 39.873490 2.680878 1.372841 -37.878197 0.000000 0.000000 0.000000 -1.874619 0.695866 22.930375 0.000000 0.000000 0.000000 29.683452 -15.484089 -7.718955 -26.277299 2.413949 4.243152 0.356999 1.090033 4.705824 0.000000 0.000000 0.000000 -28.513417 14.057864 -5.753868 26.232197 -2.513237 13.552489 0.785142 -0.055385 1.498101 
-0.000044 0.958261 0.000432 -1.679534 -1.792929 1.388316 0.000000 0.000000 0.000000 -4.683038 -1.241986 -5.647370 11.245174 -1.556372 5.429045 -7.640500 -16.822227 3.818142 0.000000 0.000000 0.000000 4.083848 0.031175 -1.263209 -7.200711 0.508757 -4.987707 4.653000 11.501618 2.465068 0.000000 0.000000 0.000000 4.352701 0.074675 -8.164515 -4.733765 4.863471 39.747777 2.748509 1.356096 -37.836714 0.000000 0.000000 0.000000 -1.842020 0.680417 23.036641 0.000000 0.000000 0.000000 29.728113 -15.683493 -7.910302 -26.134260 2.658033 5.006383 -0.350376 0.716345 4.187325 0.000000 0.000000 0.000000 -28.479331 14.118726 -5.800116 26.106682 -2.590394 13.761322 1.316690 0.393145 0.893743 
0.000015 0.958033 0.000980 -1.756373 -1.858569 1.373103 0.000000 0.000000 0.000000 -4.616393 -1.204248 -5.507795 11.263365 -1.547311 5.333576 -7.524699 -16.795090 3.663117 0.000000 0.000000 0.000000 4.125423 0.013161 -1.184507 -7.125229 0.494484 -5.028792 4.644196 11.612510 2.384312 0.000000 0.000000 0.000000 4.326682 0.074683 -8.136300 -4.599536 4.807719 39.845795 2.759138 1.313053 -38.042739 0.000000 0.000000 0.000000 -1.742996 0.618519 22.914251 0.000000 0.000000 0.000000 29.479143 -16.113027 -8.324784 -25.410609 3.279019 7.141326 -1.507384 -0.800777 -0.674645 0.000000 0.000000 0.000000 -28.630554 14.444508 -6.057835 25.717320 -2.895406 14.636471 2.650417 2.037286 -2.051211 
-0.000400 0.957903 0.001325 -1.713328 -1.932911 1.099509 0.000000 0.000000 0.000000 -4.575453 -1.103244 -5.138825 11.126572 -1.523129 5.281225 -7.380925 -16.924988 3.397366 0.000000 0.000000 0.000000 4.019503 -0.042494 -0.877907 -6.965127 0.476823 -5.022383 4.622829 11.827478 2.224009 0.000000 0.000000 0.000000 4.393300 0.051405 -8.014009 -5.068703 5.143542 40.326060 3.061673 1.289707 -38.050209 0.000000 0.000000 0.000000 -1.528846 0.492428 22.116858 0.000000 0.000000 0.000000 28.955032 -16.302690 -8.548406 -23.802161 3.922011 9.778283 -1.551971 -3.661629 -12.514584 0.000000 0.000000 0.000000 -28.273416 14.556821 -6.156843 24.632101 -3.399363 16.156617 3.165853 5.472318 -10.824036 
-0.000477 0.957979 0.001217 -1.787593 -2.008134 0.709452 0.000000 0.000000 0.000000 -4.436448 -1.002078 -4.750818 11.019775 -1.523152 5.389405 -7.311971 -17.229772 3.164209 0.000000 0.000000 0.000000 4.062346 -0.116207 -0.511403 -6.875078 0.476964 -4.934744 4.665033 12.120836 2.140633 0.000000 0.000000 0.000000 4.408060 0.005308 -7.645770 -4.965785 5.155756 40.829803 3.019907 1.259237 -37.918450 0.000000 0.000000 0.000000 -1.517680 0.491829 21.368106 0.000000 0.000000 0.000000 28.970160 -15.447105 -7.785135 -22.701054 3.937738 10.304801 0.464907 -6.957118 -29.758354 0.000000 0.000000 0.000000 -28.342147 14.008898 -5.664547 23.443394 -3.615487 16.952546 0.699617 9.563476 -25.704113 
-0.000457 0.957956 0.000653 -1.834220 -1.996453 0.524805 0.000000 0.000000 0.000000 -4.313524 -0.986076 -4.674569 10.920286 -1.520859 5.480267 -7.517343 -17.674486 3.269365 0.000000 0.000000 0.000000 4.077901 -0.135064 -0.414949 -6.820025 0.483836 -4.826410 4.781488 12.341170 2.237067 0.000000 0.000000 0.000000 4.369721 -0.027872 -7.323811 -5.044189 5.168860 40.611037 3.249903 1.361111 -37.613933 0.000000 0.000000 0.000000 -1.698037 0.617128 21.318073 0.000000 0.000000 0.000000 29.726413 -14.838245 -7.195608 -22.204870 3.068992 7.519358 4.789985 -7.793833 -46.315306 0.000000 0.000000 0.000000 -29.145987 12.943423 -4.634019 22.919836 -3.052813 15.350637 -5.237850 11.135009 -42.976628 
-0.000290 0.958269 -0.000423 -1.792682 -1.859673 0.662025 0.000000 0.000000 0.000000 -4.276703 -1.077911 -5.000943 10.803626 -1.518596 5.583238 -7.719131 -18.171314 3.344549 0.000000 0.000000 0.000000 3.972743 -0.078229 -0.673549 -6.743916 0.488798 -4.714225 4.861917 12.413318 2.349901 0.000000 0.000000 0.000000 4.344571 -0.044824 -7.160388 -5.093744 5.079657 39.836395 3.368082 1.306515 -37.646142 0.000000 0.000000 0.000000 -2.061556 0.873031 21.925104 0.000000 0.000000 0.000000 30.262211 -15.582208 -7.857976 -21.227555 1.707509 3.089186 10.091522 -5.080697 -58.899030 0.000000 0.000000 0.000000 -29.486722 12.438996 -4.128397 21.929687 -1.841072 11.815257 -12.455895 8.316469 -57.911558 
0.000358 0.956820 -0.000346 -1.408386 -1.675222 1.958507 0.000000 0.000000 0.000000 -4.918307 -1.482944 -6.530583 11.191604 -1.550068 5.431990 -8.628528 -17.059724 5.144330 0.000000 0.000000 0.000000 3.607592 0.248849 -2.267836 -6.970558 0.535701 -4.550841 5.161656 10.830683 3.801107 0.000000 0.000000 0.000000 3.394644 0.342454 -9.298821 -3.361758 4.102112 39.929162 2.027677 0.967915 -37.272482 0.000000 0.000000 0.000000 -2.088430 0.853144 21.668821 0.000000 0.000000 0.000000 32.547810 -17.962046 -9.952599 -19.782049 -0.004796 -2.892701 12.960887 -3.329235 -68.240280 0.000000 0.000000 0.000000 -31.094623 13.071801 -4.572242 21.539956 0.120600 5.864270 -16.836435 5.488013 -68.475573 
0.000657 0.956828 -0.000907 -1.288819 -1.564193 1.997593 0.000000 0.000000 0.000000 -5.024449 -1.500151 -6.600557 11.172603 -1.542147 5.387663 -8.715407 -17.259438 5.176843 0.000000 0.000000 0.000000 3.458710 0.266551 -2.329706 -7.000442 0.541202 -4.539044 5.291349 10.915829 3.999980 0.000000 0.000000 0.000000 3.212157 0.380459 -9.413594 -2.886128 3.791582 39.650619 1.778813 0.559526 -37.329046 0.000000 0.000000 0.000000 -2.050006 0.848949 22.092769 0.000000 0.000000 0.000000 34.284791 -19.360545 -11.355943 -18.833484 -1.621351 -8.875723 15.033649 -1.154882 -73.995517 0.000000 0.000000 0.000000 -31.903786 13.654292 -4.969307 19.645604 2.254619 -1.090901 -19.030303 4.188694 -75.754473 
0.000716 0.956740 -0.001115 -1.197449 -1.603326 1.969302 0.000000 0.000000 0.000000 -5.114096 -1.486701 -6.557702 11.181752 -1.545107 5.400723 -8.781236 -17.307204 5.251613 0.000000 0.000000 0.000000 3.321679 0.273636 -2.341284 -6.975949 0.544246 -4.486923 5.469370 11.119482 4.212332 0.000000 0.000000 0.000000 3.188343 0.404631 -9.600501 -2.458462 3.578786 39.863532 1.421191 0.225959 -37.668543 0.000000 0.000000 0.000000 -2.115935 0.910492 22.195956 0.000000 0.000000 0.000000 35.774061 -20.680487 -12.739881 -18.262860 -3.005868 -14.088051 14.867624 -2.092840 -77.634154 0.000000 0.000000 0.000000 -32.709922 14.882878 -6.002341 18.218411 3.996134 -7.102189 -18.998336 6.707989 -81.641860 
